<svg xmlns="http://www.w3.org/2000/svg" viewBox="0 0 30 30" width="30" height="30">
	<defs>
		<clipPath clipPathUnits="userSpaceOnUse" id="cp1">
			<path d="M-749 -3989L1171 -3989L1171 670L-749 670Z" />
		</clipPath>
	</defs>
	<style>
		tspan { white-space:pre }
		.shp0 { fill: #ffffff } 
	</style>
	<g id="Mask Group" clip-path="url(#cp1)">
		<g id="Frame 1">
			<g id="Блог">
				<path id="стрелка" fill-rule="evenodd" class="shp0" d="M15 30C6.71 30 0 23.29 0 15C0 6.71 6.71 0 15 0C23.29 0 30 6.71 30 15C30 23.29 23.29 30 15 30ZM15 27.1C21.68 27.1 27.1 21.68 27.1 15C27.1 8.32 21.68 2.9 15 2.9C8.32 2.9 2.9 8.32 2.9 15C2.9 21.68 8.32 27.1 15 27.1ZM7.26 16.21L7.26 13.79C7.26 13.39 7.58 13.06 7.98 13.06L15 13.06L15 9.01C15 8.36 15.78 8.04 16.24 8.5L22.23 14.49C22.51 14.77 22.51 15.23 22.23 15.51L16.24 21.5C15.78 21.96 15 21.63 15 20.99L15 16.94L7.98 16.94C7.58 16.94 7.26 16.61 7.26 16.21Z" />
			</g>
		</g>
	</g>
</svg>