<svg xmlns="http://www.w3.org/2000/svg" viewBox="0 0 68 68" width="68" height="68">
	<style>
		tspan { white-space:pre }
		.shp0 { fill: #000000 } 
	</style>
	<path id="стрелка слайдер" fill-rule="evenodd" class="shp0" d="M67.91 34C67.91 52.73 52.73 67.91 34 67.91C15.27 67.91 0.09 52.73 0.09 34C0.09 15.27 15.27 0.09 34 0.09C52.73 0.09 67.91 15.27 67.91 34ZM51.5 38.37L51.5 29.62C51.5 28.72 50.76 27.98 49.86 27.98L34 27.98L34 18.29C34 16.83 32.24 16.09 31.2 17.13L15.57 32.85C14.93 33.49 14.93 34.52 15.57 35.16L31.2 50.87C32.22 51.91 34 51.17 34 49.71L34 40.02L49.86 40.02C50.76 40.02 51.5 39.28 51.5 38.37Z" />
</svg>