<svg xmlns="http://www.w3.org/2000/svg" viewBox="0 0 1920 5151" width="1920" height="5151">
	<style>
		tspan { white-space:pre }
		.shp0 { fill: #ffffff } 
	</style>
	<path id="поиск лупа" fill-rule="evenodd" class="shp0" d="M1163.65 1595.78L1160.13 1592.29C1159.97 1592.13 1159.88 1591.92 1159.88 1591.69L1159.88 1591.12C1158.64 1592.1 1157.08 1592.68 1155.39 1592.69C1151.35 1592.71 1148.06 1589.45 1148.04 1585.41C1148.02 1581.37 1151.27 1578.08 1155.31 1578.06C1159.35 1578.04 1162.64 1581.3 1162.66 1585.34C1162.67 1587.04 1162.1 1588.6 1161.14 1589.85L1161.71 1589.85C1161.93 1589.84 1162.15 1589.93 1162.31 1590.09L1165.83 1593.58C1166.16 1593.9 1166.17 1594.44 1165.84 1594.77L1164.85 1595.77C1164.52 1596.1 1163.98 1596.1 1163.65 1595.78ZM1159.85 1585.35C1159.84 1582.87 1157.81 1580.86 1155.33 1580.88C1152.84 1580.89 1150.84 1582.91 1150.85 1585.4C1150.86 1587.89 1152.88 1589.89 1155.37 1589.88C1157.86 1589.86 1159.86 1587.84 1159.85 1585.35Z" />
</svg>